<svg height="496pt" viewBox="0 0 496 496" width="496pt" xmlns="http://www.w3.org/2000/svg"><path d="m152 440h192v48h-192zm0 0" fill="#838f9b"/><path d="m40 440c-17.679688 0-32-14.320312-32-32v-32h104l24 16h352v16c0 17.679688-14.320312 32-32 32zm0 0" fill="#969faa"/><path d="m392 344h48s16-8 16-32-16-32-16-32h-64v-160h80c17.679688 0 32 14.320312 32 32v240h-112v-48zm0 0" fill="#69d6f4"/><path d="m56 120v256h-48v-224c0-17.679688 14.320312-32 32-32zm0 0" fill="#69d6f4"/><path d="m376 344v48h-240l-24-16h-56v-368h320v272h-240l-48 32 48 32zm0 0" fill="#e6e9ed"/><path d="m168 184v64h-80v-80h80zm0 0" fill="#b4dd7f"/><path d="m168 72v64h-80v-80h80zm0 0" fill="#b4dd7f"/><path d="m440 280s16 8 16 32-16 32-16 32h-48v-64zm0 0" fill="#969faa"/><path d="m392 280v64h-32v-64zm0 0" fill="#b4dd7f"/><path d="m360 312v32h-224v-32zm0 0" fill="#fcd770"/><path d="m360 280v32h-224v-32zm0 0" fill="#ffc729"/><path d="m136 312v32l-48-32 48-32zm0 0" fill="#969faa"/><path d="m96 400h16v16h-16zm0 0"/><path d="m64 400h16v16h-16zm0 0"/><path d="m32 400h16v16h-16zm0 0"/><path d="m456 112h-72v-112h-336v112h-8c-22.054688 0-40 17.945312-40 40v256c0 22.054688 17.945312 40 40 40h104v32h-32v16h272v-16h-32v-32h104c22.054688 0 40-17.945312 40-40v-256c0-22.054688-17.945312-40-40-40zm0 16c13.230469 0 24 10.769531 24 24v232h-96v-32h57.886719l1.6875-.839844c.832031-.417968 20.425781-10.542968 20.425781-39.160156s-19.59375-38.742188-20.425781-39.160156l-1.6875-.839844h-57.886719v-144zm-328 201.054688-25.574219-17.054688 25.574219-17.054688zm16-9.054688h160v-16h-160v-16h208v16h-32v16h32v16h-208zm224-32h16v48h-16zm32 0h37.679688c3.097656 2.296875 10.320312 9.230469 10.320312 24 0 14.824219-7.28125 21.761719-10.304688 24h-37.695312zm-360-160h8v240h-32v-216c0-13.230469 10.769531-24 24-24zm416 304h-280v16h160v32h-176v-48h-120c-13.230469 0-24-10.769531-24-24v-24h48v-368h304v256h-234.425781l-60 40 60 40h234.425781v32h-229.574219l-24-16h-34.425781v16h29.574219l24 16h346.425781v8c0 13.230469-10.769531 24-24 24zm0 0"/><path d="m176 75.3125 29.65625-29.65625-11.3125-11.3125-18.34375 18.34375v-4.6875h-96v96h96zm-80 52.6875v-64h64v4.6875l-30.761719 30.761719-10.582031-15.882813-13.3125 8.875 21.417969 32.117188 33.238281-33.246094v36.6875zm0 0"/><path d="m176 187.3125 29.65625-29.65625-11.3125-11.3125-18.34375 18.34375v-4.6875h-96v96h96zm-80 52.6875v-64h64v4.6875l-30.761719 30.761719-10.582031-15.882813-13.3125 8.875 21.417969 32.117188 33.238281-33.246094v36.6875zm0 0"/><path d="m224 48h16v16h-16zm0 0"/><path d="m256 48h96v16h-96zm0 0"/><path d="m224 80h16v16h-16zm0 0"/><path d="m256 80h96v16h-96zm0 0"/><path d="m224 112h16v16h-16zm0 0"/><path d="m256 112h96v16h-96zm0 0"/><path d="m224 176h16v16h-16zm0 0"/><path d="m256 176h96v16h-96zm0 0"/><path d="m224 208h16v16h-16zm0 0"/><path d="m256 208h96v16h-96zm0 0"/><path d="m224 240h16v16h-16zm0 0"/><path d="m256 240h96v16h-96zm0 0"/></svg>