<svg height="496pt" viewBox="0 0 496 496" width="496pt" xmlns="http://www.w3.org/2000/svg"><path d="m488 424v32c0 17.679688-14.320312 32-32 32h-416c-17.679688 0-32-14.320312-32-32v-32h176c10.238281 10.238281 24.160156 16 38.640625 16h50.71875c14.480469 0 28.402344-5.761719 38.640625-16zm0 0" fill="#838f9b"/><path d="m376 136c8.800781 0 16-7.199219 16-16h48c17.679688 0 32 14.320312 32 32v272h-32v-264c0-4.398438-3.601562-8-8-8h-120l24-16zm0 0" fill="#ccd1d9"/><path d="m264 152h-96.078125c-5.601563-5.121094-13.042969-8-20.722656-8-7.199219 0-14.238281 2.558594-19.757813 7.199219l-63.519531.722656c-4.402344 0-7.921875 3.597656-7.921875 8v264.078125h-32v-272c0-17.679688 14.320312-32 32-32h144c0 8.800781 7.199219 16 16 16h48zm0 0" fill="#ccd1d9"/><path d="m63.921875 151.921875 63.519531-.722656-.960937.800781-7.921875 6.558594-11.4375 9.441406c-12.082032 10.160156-19.121094 25.121094-19.121094 40.960938v.640624c0 9.4375 2.480469 18.71875 7.28125 26.796876 16 27.441406 35.277344 52.722656 57.277344 75.28125 22 22.558593 46.800781 42.398437 73.839844 59.039062l8.800781 5.359375c8.320312 5.203125 18 7.921875 27.839843 7.921875 7.921876 0 15.601563-1.761719 22.640626-5.039062 6.960937-3.28125 13.199218-8.082032 18.320312-14.082032l9.441406-11.4375 7.359375-8.882812c4.640625-5.519532 7.199219-12.558594 7.199219-19.757813 0-8.160156-3.28125-16.082031-9.039062-21.839843l-32.722657-32.722657c-4-4-9.4375-6.238281-15.039062-6.238281-5.839844 0-11.4375 2.398438-15.519531 6.71875l-12.078126 12.882812-3.203124 3.4375c-5.359376 5.679688-12.878907 8.960938-20.636719 8.960938-7.523438 0-14.722657-2.960938-20.082031-8.320312l-15.359376-15.359376c-5.359374-5.359374-8.320312-12.558593-8.320312-20.082031 0-7.757812 3.28125-15.277343 8.960938-20.636719l3.4375-3.203124 12.882812-12.078126c4.320312-4.082031 6.71875-9.679687 6.71875-15.519531 0-5.601562-2.238281-11.039062-6.238281-15.039062l-32.722657-32.722657c-.398437-.398437-.71875-.71875-1.117187-1.039062h96.078125v32l48-32h120c4.398438 0 8 3.601562 8 8v264h-128c-10.238281 10.238281-24.160156 16-38.640625 16h-50.71875c-14.480469 0-28.402344-5.761719-38.640625-16h-128v-264.078125c0-4.402344 3.519531-8 7.921875-8zm0 0" fill="#69d6f4"/><path d="m376 8h-160c-8.800781 0-16 7.199219-16 16v96c0 8.800781 7.199219 16 16 16h48v48l72-48h40c8.800781 0 16-7.199219 16-16v-96c0-8.800781-7.199219-16-16-16zm0 0" fill="#ffeaa7"/><path d="m313.441406 353.441406-9.441406 11.4375c-5.121094 6-11.359375 10.800782-18.320312 14.082032-7.039063 3.277343-14.71875 5.039062-22.640626 5.039062-9.839843 0-19.519531-2.71875-27.839843-7.921875l-8.800781-5.359375c-27.039063-16.640625-51.839844-36.480469-73.839844-59.039062-22-22.558594-41.277344-47.839844-57.277344-75.28125-4.800781-8.078126-7.28125-17.359376-7.28125-26.796876v-.640624c0-15.839844 7.039062-30.800782 19.121094-40.960938l11.4375-9.441406 69.839844 69.839844-3.4375 3.203124c-5.679688 5.359376-8.960938 12.878907-8.960938 20.636719 0 7.523438 2.960938 14.722657 8.320312 20.082031l15.359376 15.359376c5.359374 5.359374 12.558593 8.320312 20.082031 8.320312 7.757812 0 15.277343-3.28125 20.636719-8.960938l3.203124-3.4375zm0 0" fill="#e6e9ed"/><path d="m328 324.800781c0 7.199219-2.558594 14.238281-7.199219 19.757813l-7.359375 8.882812-69.839844-69.839844 12.078126-12.882812c4.082031-4.320312 9.679687-6.71875 15.519531-6.71875 5.601562 0 11.039062 2.238281 15.039062 6.238281l32.722657 32.722657c5.757812 5.757812 9.039062 13.679687 9.039062 21.839843zm0 0" fill="#ff826e"/><path d="m201.761719 185.761719-32.722657-32.722657c-.398437-.398437-14.160156-9.039062-21.839843-9.039062-7.199219 0-20.71875 8-20.71875 8l-7.921875 6.558594 69.839844 69.839844 12.882812-12.078126c4.320312-4.082031 6.71875-9.679687 6.71875-15.519531 0-5.601562-2.238281-11.039062-6.238281-15.039062zm0 0" fill="#ff826e"/><path d="m48 448h16v16h-16zm0 0"/><path d="m80 448h16v16h-16zm0 0"/><path d="m112 448h16v16h-16zm0 0"/><path d="m384 448h64v16h-64zm0 0"/><path d="m480 416v-264c0-22.054688-17.945312-40-40-40h-40v-88c0-13.230469-10.769531-24-24-24h-160c-13.230469 0-24 10.769531-24 24v88h-136c-22.054688 0-40 17.945312-40 40v264h-16v40c0 22.054688 17.945312 40 40 40h416c22.054688 0 40-17.945312 40-40v-40zm-272-392c0-4.40625 3.585938-8 8-8h160c4.414062 0 8 3.59375 8 8v96c0 4.40625-3.585938 8-8 8h-42.425781l-61.574219 41.046875v-41.046875h-56c-4.414062 0-8-3.59375-8-8zm272 432c0 13.230469-10.769531 24-24 24h-416c-13.230469 0-24-10.769531-24-24v-24h164.824219c11.414062 10.199219 26.464843 16 41.808593 16h50.75c15.34375 0 30.394532-5.800781 41.808594-16h100.808594v-16h-107.3125l-2.34375 2.34375c-8.679688 8.679688-20.695312 13.65625-32.96875 13.65625h-50.75c-12.273438 0-24.289062-4.976562-32.96875-13.65625l-2.34375-2.34375h-123.3125v-256.097656l40.992188-.476563-2.953126 2.460938c-14.007812 11.671875-22.039062 28.816406-22.039062 47.722656 0 10.832031 2.878906 21.503906 8.335938 30.847656 32.550781 55.808594 78.839843 103.191407 133.863281 137.054688l8.777343 5.398437c9.648438 5.945313 20.75 9.089844 32.09375 9.089844 18.234376 0 35.378907-8.03125 47.042969-22.03125l16.871094-20.25c5.816406-6.984375 9.015625-15.832031 9.015625-24.910156 0-10.242188-4.160156-20.273438-11.398438-27.511719l-32.730468-32.730469c-5.519532-5.527344-12.855469-8.566406-20.671875-8.566406-8.054688 0-15.832031 3.367188-21.335938 9.238281l-15.3125 16.335938c-7.535156 8.035156-21.382812 8.265625-29.191406.472656l-15.40625-15.40625c-3.832031-3.839844-5.953125-8.945313-5.953125-14.367187 0-5.59375 2.34375-11 6.425781-14.824219l16.34375-15.320313c5.863281-5.503906 9.230469-13.28125 9.230469-21.328125 0-7.816406-3.039062-15.160156-8.558594-20.671875l-32.730468-32.722656c-7.238282-7.246094-17.269532-11.40625-27.519532-11.40625-8.015625 0-15.765625 2.617188-22.289062 7.191406l-61.09375.710938c-8.710938.113281-15.808594 7.289062-15.808594 16v256.097656h-16v-264c0-13.230469 10.769531-24 24-24h137.472656c3.3125 9.289062 12.113282 16 22.527344 16h40v54.953125l82.425781-54.953125h37.574219c10.414062 0 19.214844-6.710938 22.527344-16h41.472656c13.230469 0 24 10.769531 24 24v264h-16v-256c0-8.824219-7.175781-16-16-16h-32v16h32v272h48zm-165.3125-116.519531-1.777344 2.121093-58.167968-58.167968 6.792968-7.25c4.914063-5.246094 13.945313-5.390625 19.023438-.3125l32.730468 32.730468c4.261719 4.261719 6.710938 10.175782 6.710938 16.207032 0 5.351562-1.878906 10.558594-5.3125 14.671875zm-71.152344-44.632813 59.097656 59.097656-4.816406 5.78125c-8.617187 10.34375-21.28125 16.273438-34.746094 16.273438-8.382812 0-16.574218-2.320312-23.703124-6.710938l-8.773438-5.402343c-52.792969-32.488281-97.203125-77.949219-128.441406-131.496094-4.015625-6.894531-6.152344-14.773437-6.152344-23.453125 0-13.464844 5.929688-26.136719 16.28125-34.753906l5.773438-4.816406 59.097656 59.097656c-5.753906 6.574218-9.152344 15-9.152344 23.808594 0 9.695312 3.785156 18.824218 10.640625 25.679687l15.40625 15.40625c6.855469 6.855469 15.984375 10.640625 25.679687 10.640625 8.800782 0 17.226563-3.398438 23.808594-9.152344zm-54.96875-77.589844-58.175781-58.167968 2.128906-1.777344c4.105469-3.425781 9.320313-5.3125 14.671875-5.3125 6.03125 0 11.9375 2.449219 16.199219 6.710938l32.730469 32.722656c2.503906 2.503906 3.878906 5.824218 3.878906 9.367187 0 3.648438-1.519531 7.167969-4.175781 9.664063zm0 0"/><path d="m224 32h144v16h-144zm0 0"/><path d="m224 64h144v16h-144zm0 0"/><path d="m352 96h16v16h-16zm0 0"/><path d="m224 96h112v16h-112zm0 0"/></svg>