<svg height="496pt" viewBox="0 0 496 496" width="496pt" xmlns="http://www.w3.org/2000/svg"><path d="m112 72c0 22.089844-17.910156 40-40 40s-40-17.910156-40-40 17.910156-40 40-40 40 17.910156 40 40zm0 0" fill="#f0bc5e"/><path d="m32 320h16v64h-16zm0 0"/><path d="m32 288h16v16h-16zm0 0"/><path d="m32 400h16v16h-16zm0 0"/><path d="m240 96h16v80h-16zm0 0"/><path d="m297.160156 187.523438 61.90625-61.910157 11.3125 11.3125-61.90625 61.910157zm0 0"/><path d="m198.871094 187.558594-70.695313-70.703125c10.183594-12.71875 15.824219-28.503907 15.824219-44.855469 0-20.449219-8.742188-40-23.984375-53.648438-15.230469-13.640624-35.710937-20.183593-56.199219-17.894531-31.59375 3.496094-58.046875 28.75-62.921875 60.054688-3.285156 21.136719 2.753907 42.425781 16.5625 58.417969 2.152344 2.503906 4.039063 5.183593 5.765625 7.949218-4.445312 4.359375-7.222656 10.417969-7.222656 17.121094 0 10.664062 7.039062 19.625 16.679688 22.734375 3.222656 18.851563 19.578124 33.265625 39.320312 33.265625s36.097656-14.414062 39.320312-33.265625c9.640626-3.109375 16.679688-12.070313 16.679688-22.734375 0-1.839844-.246094-3.609375-.640625-5.328125l60.199219 60.207031zm-169.304688-79.078125c-10.894531-12.617188-15.460937-28.785157-12.855468-45.503907 3.777343-24.289062 24.328124-43.886718 48.863281-46.609374 16.210937-1.832032 31.746093 3.152343 43.769531 13.90625 11.855469 10.605468 18.65625 25.824218 18.65625 41.726562 0 13.503906-4.894531 26.542969-13.777344 36.71875-3.09375 3.546875-5.71875 7.449219-8.117187 11.496094-.707031-.0625-1.386719-.214844-2.105469-.214844h-24v-25.472656c9.289062-3.3125 16-12.113282 16-22.527344 0-13.230469-10.769531-24-24-24s-24 10.769531-24 24c0 10.414062 6.710938 19.214844 16 22.527344v25.472656h-24c-.753906 0-1.457031.152344-2.183594.222656-2.433594-4.109375-5.097656-8.09375-8.25-11.742187zm34.433594-36.480469c0-4.414062 3.59375-8 8-8s8 3.585938 8 8-3.59375 8-8 8-8-3.585938-8-8zm8 112c-10.414062 0-19.214844-6.710938-22.527344-16h45.046875c-3.304687 9.289062-12.105469 16-22.519531 16zm32-32h-64c-4.40625 0-8-3.585938-8-8s3.59375-8 8-8h64c4.40625 0 8 3.585938 8 8s-3.59375 8-8 8zm0 0"/><path d="m448 328h16v48h-16zm0 0"/><path d="m456 208h-130.136719v16h90.136719v256h-336v-256h90.136719v-16h-130.136719c-22.054688 0-40 17.945312-40 40v208c0 22.054688 17.945312 40 40 40h416c22.054688 0 40-17.945312 40-40v-208c0-22.054688-17.945312-40-40-40zm-440 248v-208c0-13.230469 10.769531-24 24-24h24v256h-24c-13.230469 0-24-10.769531-24-24zm464 0c0 13.230469-10.769531 24-24 24h-24v-256h24c13.230469 0 24 10.769531 24 24zm0 0"/><path d="m112 448v-192h40v-16h-56v224h304v-224h-59.152344v16h43.152344v192zm0 0"/><path d="m248 376c-57.34375 0-104-46.65625-104-104s46.65625-104 104-104 104 46.65625 104 104-46.65625 104-104 104zm0 0" fill="#f0bc5e"/><path d="m208 324.945312v-105.890624l105.886719 52.945312zm16-80v54.109376l54.113281-27.054688zm0 0"/><path d="m437.71875 160h-43.4375l-4.441406-12.953125c-.910156-.359375-1.832032-.742187-2.75-1.152344l-12.3125 6.027344-30.714844-30.722656 6.035156-12.296875c-.410156-.910156-.792968-1.832032-1.152344-2.75l-12.945312-4.433594v-43.4375l12.953125-4.441406c.359375-.910156.742187-1.832032 1.152344-2.75l-6.027344-12.304688 30.707031-30.707031 12.3125 6.027344c.910156-.410157 1.832032-.792969 2.75-1.152344l4.433594-12.953125h43.4375l4.441406 12.953125c.910156.359375 1.832032.742187 2.75 1.152344l12.3125-6.027344 30.707032 30.707031-6.027344 12.3125c.410156.910156.792968 1.832032 1.152344 2.75l12.945312 4.433594v43.4375l-12.953125 4.441406c-.359375.910156-.742187 1.832032-1.152344 2.75l6.035157 12.296875-30.714844 30.722657-12.3125-6.027344c-.910156.410156-1.832032.792968-2.75 1.152344zm0 0" fill="#f0bc5e"/><path d="m416 120c-22.054688 0-40-17.945312-40-40s17.945312-40 40-40 40 17.945312 40 40-17.945312 40-40 40zm0-64c-13.230469 0-24 10.769531-24 24s10.769531 24 24 24 24-10.769531 24-24-10.769531-24-24-24zm0 0"/><path d="m248 80c-13.230469 0-24-10.769531-24-24s10.769531-24 24-24 24 10.769531 24 24-10.769531 24-24 24zm0-32c-4.40625 0-8 3.585938-8 8s3.59375 8 8 8 8-3.585938 8-8-3.59375-8-8-8zm0 0"/><path d="m304 56h-16c0-22.054688-17.945312-40-40-40s-40 17.945312-40 40h-16c0-30.871094 25.121094-56 56-56s56 25.128906 56 56zm0 0"/></svg>