<svg height="496pt" viewBox="0 0 496 496" width="496pt" xmlns="http://www.w3.org/2000/svg"><path d="m488 152v304h-208c0 8.800781-3.601562 16.800781-9.359375 22.640625-5.839844 5.757813-13.839844 9.359375-22.640625 9.359375s-16.800781-3.601562-22.640625-9.359375c-5.757813-5.839844-9.359375-13.839844-9.359375-22.640625h-208v-304h32v272h192v-272h32v272h192v-272zm0 0" fill="#dfb28b"/><path d="m424 104h-128c-17.679688 0-32 14.320312-32 32v16h8c4.398438 0 8 3.601562 8 8v16c0 4.398438-3.601562 8-8 8h-8v32h8c4.398438 0 8 3.601562 8 8v16c0 4.398438-3.601562 8-8 8h-8v32h8c4.398438 0 8 3.601562 8 8v16c0 4.398438-3.601562 8-8 8h-8v32h8c4.398438 0 8 3.601562 8 8v16c0 4.398438-3.601562 8-8 8h-8v48h192v-320zm0 0" fill="#e6e9ed"/><path d="m224 152h8v-16c0-17.679688-14.320312-32-32-32h-160v320h192v-48h-8c-4.398438 0-8-3.601562-8-8v-16c0-4.398438 3.601562-8 8-8h8v-32h-8c-4.398438 0-8-3.601562-8-8v-16c0-4.398438 3.601562-8 8-8h8v-32h-8c-4.398438 0-8-3.601562-8-8v-16c0-4.398438 3.601562-8 8-8h8v-32h-8c-4.398438 0-8-3.601562-8-8v-16c0-4.398438 3.601562-8 8-8zm0 0" fill="#e6e9ed"/><g fill="#ccd1d9"><path d="m280 360v8c0 4.398438-3.601562 8-8 8h-48c-4.398438 0-8-3.601562-8-8v-16c0-4.398438 3.601562-8 8-8h48c4.398438 0 8 3.601562 8 8zm0 0"/><path d="m280 288v16c0 4.398438-3.601562 8-8 8h-48c-4.398438 0-8-3.601562-8-8v-16c0-4.398438 3.601562-8 8-8h48c4.398438 0 8 3.601562 8 8zm0 0"/><path d="m280 224v16c0 4.398438-3.601562 8-8 8h-48c-4.398438 0-8-3.601562-8-8v-16c0-4.398438 3.601562-8 8-8h48c4.398438 0 8 3.601562 8 8zm0 0"/><path d="m280 160v16c0 4.398438-3.601562 8-8 8h-48c-4.398438 0-8-3.601562-8-8v-16c0-4.398438 3.601562-8 8-8h48c4.398438 0 8 3.601562 8 8zm0 0"/></g><path d="m392 88v160h-64v-160zm0 0" fill="#969faa"/><path d="m392 40v48h-64v-48c0-8.800781 3.601562-16.800781 9.359375-22.640625 5.839844-5.757813 13.839844-9.359375 22.640625-9.359375 17.679688 0 32 14.320312 32 32zm0 0" fill="#fcd770"/><path d="m392 248-21.679688 72.320312c-1.359374 4.558594-5.601562 7.679688-10.320312 7.679688s-8.960938-3.121094-10.320312-7.679688l-21.679688-72.320312zm0 0" fill="#fcd770"/><path d="m72 136h112v64h-112zm0 0" fill="#b4dd7f"/><path d="m464 144v-48h-32v-8c0-13.230469-10.769531-24-24-24-2.816406 0-5.488281.574219-8 1.472656v-25.472656c0-22.054688-17.945312-40-40-40s-40 17.945312-40 40v56h-24c-22.054688 0-40 17.945312-40 40v8h-16v-8c0-22.054688-17.945312-40-40-40h-168v48h-32v320h208.808594c3.710937 18.230469 19.878906 32 39.191406 32s35.480469-13.769531 39.191406-32h208.808594v-320zm-106.632812 174.039062-18.613282-62.039062h42.492188l-18.613282 62.039062c-.6875 2.3125-4.578124 2.3125-5.265624 0zm26.632812-78.039062h-48v-144h48zm-24-224c13.230469 0 24 10.769531 24 24v40h-48v-40c0-13.230469 10.769531-24 24-24zm-88 120c0-13.230469 10.769531-24 24-24h24v136l21.265625 72h-37.265625v16h128v-16h-53.246094l21.246094-70.824219v-161.175781c0-4.40625 3.59375-8 8-8s8 3.59375 8 8v112h16v-88h16v304h-176v-32c8.824219 0 16-7.175781 16-16v-16c0-8.824219-7.175781-16-16-16v-16c8.824219 0 16-7.175781 16-16v-16c0-8.824219-7.175781-16-16-16v-16c8.824219 0 16-7.175781 16-16v-16c0-8.824219-7.175781-16-16-16v-16c8.824219 0 16-7.175781 16-16v-16c0-8.824219-7.175781-16-16-16zm-48 232v-16h48l.007812 16zm48.007812-192h-48.007812v-16h48zm-16.007812 16v16h-16v-16zm16 32 .007812 16h-48.007812v-16zm-16 32v16h-16v-16zm16 32 .007812 16h-48.007812v-16zm-16 32v16h-16v-16zm-208-208h152c13.230469 0 24 10.769531 24 24v8c-8.824219 0-16 7.175781-16 16v16c0 8.824219 7.175781 16 16 16v16c-8.824219 0-16 7.175781-16 16v16c0 8.824219 7.175781 16 16 16v16c-8.824219 0-16 7.175781-16 16v16c0 8.824219 7.175781 16 16 16v16c-8.824219 0-16 7.175781-16 16v16c0 8.824219 7.175781 16 16 16v32h-176zm432 336h-208v8c0 13.230469-10.769531 24-24 24s-24-10.769531-24-24v-8h-208v-288h16v272h208v-48h16v48h208v-272h16zm0 0"/><path d="m304 352h128v16h-128zm0 0"/><path d="m64 208h128v-80h-128zm16-64h96v48h-96zm0 0"/><path d="m64 256h112v16h-112zm0 0"/><path d="m112 288h80v16h-80zm0 0"/><path d="m64 288h32v16h-32zm0 0"/><path d="m176 320h16v16h-16zm0 0"/><path d="m64 320h96v16h-96zm0 0"/><path d="m64 352h80v16h-80zm0 0"/><path d="m64 224h128v16h-128zm0 0"/></svg>