<svg height="496pt" viewBox="0 0 496 496" width="496pt" xmlns="http://www.w3.org/2000/svg"><path d="m32 320h16v64h-16zm0 0"/><path d="m32 288h16v16h-16zm0 0"/><path d="m32 400h16v16h-16zm0 0"/><path d="m304 280.113281v-48.113281c0-22.054688-17.945312-40-40-40h-32c-22.054688 0-40 17.945312-40 40v48.113281h16v-48.113281c0-13.230469 10.769531-24 24-24h32c13.230469 0 24 10.769531 24 24v48.113281zm0 0"/><path d="m448 328h16v48h-16zm0 0"/><path d="m456 208h-104v96h-30.703125v16h46.703125v-64h16v192h-272v-192h16v64h46.703125v-16h-30.703125v-64h-48v224h304v-224h-32v-16h48v256h-336v-256h64v-64.6875c2.207031.390625 4.457031.6875 6.777344.6875 13.09375 0 24.871094-6.703125 31.925781-17.015625 6.984375 10.253906 18.746094 17.015625 32.074219 17.015625 13.878906 0 26.367187-7.449219 33.222656-18.847656 6.863281 11.398437 19.34375 18.847656 33.222656 18.847656 13.320313 0 25.089844-6.761719 32.074219-17.015625 7.0625 10.3125 18.832031 17.015625 31.925781 17.015625 2.320313 0 4.570313-.296875 6.777344-.6875v32.6875h16v-39.542969c9.648438-7.058593 16-18.386719 16-31.234375v-4.230468c0-4.183594-.671875-8.3125-1.992188-12.257813l-22.007812-66.023437v-38.710938h-224v38.710938l-22.007812 66.015624c-1.320313 3.953126-1.992188 8.082032-1.992188 12.265626v4.230468c0 12.847656 6.351562 24.167969 16 31.234375v55.542969h-88c-22.054688 0-40 17.945312-40 40v208c0 22.054688 17.945312 40 40 40h416c22.054688 0 40-17.945312 40-40v-208c0-22.054688-17.945312-40-40-40zm-216-96.792969-2.894531 14.488281c-2.121094 10.609376-11.511719 18.304688-22.328125 18.304688-12.5625 0-22.777344-10.214844-22.777344-22.777344v-7.09375l14.441406-66.128906h33.558594zm64 10.015625c0 12.5625-10.214844 22.777344-22.777344 22.777344-10.824218 0-20.207031-7.695312-22.328125-18.304688l-2.894531-14.488281v-63.207031h33.585938l14.414062 64.863281zm62.832031-11.414062c.777344 2.3125 1.167969 4.726562 1.167969 7.183594v4.230468c0 12.5625-10.214844 22.777344-22.777344 22.777344-10.824218 0-20.207031-7.695312-22.328125-18.304688l-2.894531-13.28125v-.414062h-.089844l-13.964844-64h40.292969zm-214.832031-93.808594h192v16h-192zm-24 100.992188c0-2.457032.390625-4.871094 1.167969-7.191407l20.59375-61.800781h40.261719l-13.871094 62.433594-3.054688 15.261718c-2.113281 10.609376-11.503906 18.304688-22.320312 18.304688-12.5625 0-22.777344-10.214844-22.777344-22.777344zm-64 363.007812h-24c-13.230469 0-24-10.769531-24-24v-208c0-13.230469 10.769531-24 24-24h24zm416-24c0 13.230469-10.769531 24-24 24h-24v-256h24c13.230469 0 24 10.769531 24 24zm0 0"/><path d="m248 432c-48.519531 0-88-39.480469-88-88s39.480469-88 88-88 88 39.480469 88 88-39.480469 88-88 88zm0 0" fill="#f0bc5e"/><path d="m248 336c-4.414062 0-8-3.585938-8-8s3.585938-8 8-8 8 3.585938 8 8h16c0-10.414062-6.710938-19.214844-16-22.527344v-17.472656h-16v17.472656c-9.289062 3.3125-16 12.113282-16 22.527344 0 13.230469 10.769531 24 24 24 4.414062 0 8 3.585938 8 8s-3.585938 8-8 8-8-3.585938-8-8h-16c0 10.414062 6.710938 19.214844 16 22.527344v17.472656h16v-17.472656c9.289062-3.3125 16-12.113282 16-22.527344 0-13.230469-10.769531-24-24-24zm0 0"/></svg>