<?xml version="1.0" encoding="utf-8"?>
<!-- Generator: Adobe Illustrator 21.0.0, SVG Export Plug-In . SVG Version: 6.00 Build 0)  -->
<svg xmlns="http://www.w3.org/2000/svg" xmlns:xlink="http://www.w3.org/1999/xlink" version="1.1" id="Layer1" x="0px" y="0px" viewBox="0 0 256 256" style="enable-background:new 0 0 256 256;" xml:space="preserve" width="512" height="512">
<style type="text/css">
	.st0{fill:#E9E9EA;}
	.st1{fill:#898989;}
	.st2{fill:#55ACD5;}
	.st3{fill:#EA4647;}
	.st4{fill:#FFCD29;}
	.st5{fill:#FFAE2C;}
	.st6{fill:#6D6C6B;}
	.st7{fill:#6DCC6D;}
	.st8{fill:#231F20;}
</style>
<path class="st0" d="M227.4,32.1H57.1c-7,0-12.6,5.7-12.6,12.6v13.3h158.7c7,0,12.6,5.7,12.6,12.6v156.9h11.6  c7,0,12.6-5.7,12.6-12.6V44.7C239.9,37.8,234.3,32.1,227.4,32.1z"/>
<path class="st0" d="M33,58.1h170.2c7,0,12.6,5.6,12.6,12.6v170.2c0,7-5.6,12.6-12.6,12.6c0,0,0,0,0,0H33c-7,0-12.6-5.6-12.6-12.6  V70.7C20.4,63.7,26,58.1,33,58.1C33,58.1,33,58.1,33,58.1z"/>
<path class="st1" d="M154.2,212.6h45.2c2,0,3.6,1.6,3.6,3.6V237c0,2-1.6,3.6-3.6,3.6h-45.2c-2,0-3.6-1.6-3.6-3.6v-20.8  C150.7,214.2,152.3,212.6,154.2,212.6z"/>
<path class="st1" d="M154.2,173.7h45.2c2,0,3.6,1.6,3.6,3.6v20.8c0,2-1.6,3.6-3.6,3.6h-45.2c-2,0-3.6-1.6-3.6-3.6v-20.8  C150.7,175.3,152.3,173.7,154.2,173.7z"/>
<path class="st1" d="M199.4,95.9h-45.2c-0.4,0-0.8,0.1-1.1,0.2c6.8,7.7,11,17.5,11.9,27.8h34.4c2,0,3.6-1.6,3.6-3.6V99.4  C203,97.5,201.4,95.9,199.4,95.9C199.4,95.9,199.4,95.9,199.4,95.9z"/>
<path class="st1" d="M199.4,134.8h-34.7c-1.4,10.1-5.9,19.6-13,27c0.7,0.6,1.5,1,2.5,1h45.2c2,0,3.6-1.6,3.6-3.6v-20.8  C203,136.4,201.4,134.8,199.4,134.8z"/>
<path class="st2" d="M149.3,92.2c-19.8-18-50.6-16.6-68.6,3.3C66.3,111.4,64,134.8,75,153.2c0.5,0.9,0.6,1.9,0.1,2.8L66.8,174  c-0.7,1.5,0,3.4,1.5,4.1c0.8,0.4,1.8,0.4,2.6,0l17.9-8.3c0.9-0.4,2-0.4,2.9,0.2c23,13.8,52.9,6.2,66.6-16.8  C170.2,133.2,166.4,107.8,149.3,92.2L149.3,92.2z"/>
<path class="st3" d="M91.7,169.9c-0.9-0.5-2-0.6-2.9-0.2L70.9,178c-1.5,0.7-3.4,0-4.1-1.5c-0.4-0.8-0.4-1.8,0-2.6l8.3-17.9  c0.4-0.9,0.4-2-0.1-2.8c-10.9-18.2-8.8-41.4,5.4-57.3H36.8c-2,0-3.6,1.6-3.6,3.6v98.5c0,2,1.6,3.6,3.6,3.6h97.5c2,0,3.6-1.6,3.6-3.6  v-26C123.1,179,105.8,178.2,91.7,169.9z"/>
<path class="st4" d="M137.2,123.8c0.5-0.5,0.5-1.3,0-1.8c-0.2-0.2-0.4-0.3-0.7-0.4l-11.9-1.7c-0.4-0.1-0.8-0.3-0.9-0.7l-5.3-10.8  c-0.3-0.6-1.1-0.9-1.7-0.6c-0.2,0.1-0.4,0.3-0.6,0.6l-5.3,10.8c-0.2,0.4-0.5,0.6-0.9,0.7l-11.9,1.7c-0.7,0.1-1.2,0.7-1.1,1.4  c0,0.3,0.2,0.5,0.4,0.7l8.6,8.4c0.3,0.3,0.4,0.7,0.4,1.1l-2,11.9c-0.1,0.7,0.3,1.3,1,1.5c0.3,0,0.6,0,0.8-0.1l10.7-5.6  c0.4-0.2,0.8-0.2,1.2,0l10.7,5.6c0.6,0.3,1.4,0.1,1.7-0.5c0.1-0.2,0.2-0.5,0.1-0.8l-2-11.9c-0.1-0.4,0.1-0.8,0.4-1.1L137.2,123.8z"/>
<path class="st5" d="M155.3,125c0.3-0.3,0.3-0.8,0-1.2c-0.1-0.1-0.3-0.2-0.5-0.2l-7.7-1.1c-0.3,0-0.5-0.2-0.6-0.4l-3.5-7  c-0.2-0.4-0.7-0.6-1.1-0.4c-0.2,0.1-0.3,0.2-0.4,0.4l-3.5,7c-0.1,0.2-0.3,0.4-0.6,0.4c0.2,0.5,0.1,1-0.3,1.3l-4.6,4.5l2.2,2.2  c0.2,0.2,0.3,0.5,0.2,0.7l-1.3,7.7c-0.1,0.4,0.2,0.9,0.7,0.9c0.2,0,0.4,0,0.5-0.1l6.9-3.6c0.2-0.1,0.5-0.1,0.8,0l6.9,3.6  c0.4,0.2,0.9,0.1,1.1-0.3c0.1-0.2,0.1-0.3,0.1-0.5l-1.3-7.7c0-0.3,0-0.5,0.2-0.7L155.3,125z"/>
<path class="st5" d="M99.3,131.2c0-0.3,0-0.5,0.2-0.7l2.2-2.2l-4.6-4.5c-0.4-0.3-0.5-0.9-0.3-1.3c-0.2,0-0.5-0.2-0.6-0.4l-3.5-7  c-0.2-0.4-0.7-0.6-1.1-0.4c-0.2,0.1-0.3,0.2-0.4,0.4l-3.5,7c-0.1,0.2-0.3,0.4-0.6,0.4l-7.7,1.1c-0.4,0.1-0.8,0.5-0.7,0.9  c0,0.2,0.1,0.3,0.2,0.5l5.6,5.5c0.2,0.2,0.3,0.5,0.2,0.7l-1.3,7.7c-0.1,0.4,0.2,0.9,0.7,0.9c0.2,0,0.4,0,0.5-0.1l6.9-3.6  c0.2-0.1,0.5-0.1,0.8,0l6.9,3.6c0.4,0.2,0.9,0.1,1.1-0.3c0.1-0.2,0.1-0.3,0.1-0.5L99.3,131.2z"/>
<path class="st6" d="M203.2,58.1H33c-7,0-12.6,5.7-12.6,12.6V84h76.1c12.8-5.8,27.6-5.8,40.4,0h78.9V70.7  C215.8,63.7,210.2,58.1,203.2,58.1z"/>
<path class="st6" d="M227.4,32.1H57.1c-7,0-12.6,5.7-12.6,12.6v13.3H240V44.7C239.9,37.8,234.3,32.1,227.4,32.1z"/>
<path class="st3" d="M41.2,65.5c-3,0.6-5,3.6-4.4,6.6c0.6,3,3.6,5,6.6,4.4c2.6-0.5,4.5-2.8,4.5-5.5c0-3.1-2.5-5.6-5.6-5.6  C41.9,65.4,41.6,65.5,41.2,65.5z"/>
<path class="st4" d="M60.2,65.5c-3,0.6-5,3.6-4.4,6.6s3.6,5,6.6,4.4C65.1,76,67,73.7,67,71c0-3.1-2.5-5.6-5.6-5.6  C61,65.4,60.6,65.5,60.2,65.5z"/>
<path class="st7" d="M79.3,65.5c-3,0.6-5,3.6-4.4,6.6c0.6,3,3.6,5,6.6,4.4C84.1,76,86,73.7,86,71c0-3.1-2.5-5.6-5.6-5.6  C80,65.4,79.7,65.5,79.3,65.5z"/>
<path class="st3" d="M65.3,39.6c-3,0.6-5,3.6-4.4,6.6c0.6,3,3.6,5,6.6,4.4c2.6-0.5,4.5-2.8,4.5-5.5c0-3.1-2.5-5.6-5.6-5.6  C66.1,39.5,65.7,39.5,65.3,39.6z"/>
<path class="st4" d="M84.4,39.6c-3,0.6-5,3.6-4.4,6.6c0.6,3,3.6,5,6.6,4.4c2.6-0.5,4.5-2.8,4.5-5.5c0-3.1-2.5-5.6-5.6-5.6  C85.1,39.5,84.8,39.5,84.4,39.6z"/>
<path class="st7" d="M103.4,39.6c-3,0.6-5,3.6-4.4,6.6c0.6,3,3.6,5,6.6,4.4c2.6-0.5,4.5-2.8,4.5-5.5c0-3.1-2.5-5.6-5.6-5.6  C104.2,39.5,103.8,39.5,103.4,39.6z"/>
<path class="st8" d="M203.2,55.6H33c-8.3,0-15.1,6.8-15.1,15.1v170.2c0,8.3,6.8,15.1,15.1,15.1h170.2c8.3,0,15.1-6.8,15.1-15.1V70.7  C218.3,62.3,211.5,55.6,203.2,55.6z M213.3,240.9c0,5.6-4.5,10.1-10.1,10.1H33c-5.6,0-10.1-4.5-10.1-10.1V70.7  c0-5.6,4.5-10.1,10.1-10.1h170.2c5.6,0,10.1,4.5,10.1,10.1V240.9z"/>
<path class="st8" d="M47.4,64.8c-3.5-2.8-8.6-2.3-11.4,1.1s-2.3,8.6,1.1,11.4c3.5,2.8,8.6,2.3,11.4-1.1c1.2-1.5,1.8-3.3,1.8-5.2  C50.4,68.6,49.3,66.3,47.4,64.8z M42.3,74.2c-1.7,0-3.1-1.4-3.1-3.1c0-1.5,1.1-2.8,2.5-3.1c0.2,0,0.4-0.1,0.6-0.1  c0.7,0,1.4,0.3,2,0.7c0.7,0.6,1.1,1.5,1.1,2.4C45.4,72.8,44,74.2,42.3,74.2z"/>
<path class="st8" d="M66.5,64.8c-3.5-2.8-8.6-2.3-11.4,1.1c-2.8,3.5-2.3,8.6,1.1,11.4s8.6,2.3,11.4-1.1c1.2-1.5,1.8-3.3,1.8-5.2  C69.5,68.6,68.4,66.3,66.5,64.8z M61.3,74.2c-1.7,0-3.1-1.4-3.1-3.1c0-1.5,1.1-2.8,2.5-3.1c0.2,0,0.4-0.1,0.6-0.1  c0.7,0,1.4,0.3,2,0.7c0.7,0.6,1.1,1.5,1.1,2.4C64.4,72.8,63.1,74.2,61.3,74.2z"/>
<path class="st8" d="M85.5,64.8c-3.5-2.8-8.6-2.3-11.4,1.1c-2.8,3.5-2.3,8.6,1.1,11.4c3.5,2.8,8.6,2.3,11.4-1.1  c1.2-1.5,1.8-3.3,1.8-5.2C88.5,68.6,87.4,66.3,85.5,64.8z M80.4,74.2c-1.7,0-3.1-1.4-3.1-3.1c0-1.5,1.1-2.8,2.5-3.1  c0.2,0,0.4-0.1,0.6-0.1c0.7,0,1.4,0.3,2,0.7c0.7,0.6,1.1,1.5,1.1,2.4C83.5,72.8,82.1,74.2,80.4,74.2z"/>
<path class="st8" d="M197.1,68.5h-6.7c-1.4,0-2.5,1.1-2.5,2.5s1.1,2.5,2.5,2.5h6.7c1.4,0,2.5-1.1,2.5-2.5S198.5,68.5,197.1,68.5z"/>
<path class="st8" d="M199.4,210.1h-45.2c-3.3,0-6.1,2.7-6.1,6.1V237c0,3.3,2.7,6.1,6.1,6.1h45.2c3.3,0,6.1-2.7,6.1-6.1v-20.8  C205.5,212.8,202.8,210.1,199.4,210.1z M200.5,237c0,0.6-0.5,1.1-1.1,1.1h-45.2c-0.6,0-1.1-0.5-1.1-1.1v-20.8c0-0.6,0.5-1.1,1.1-1.1  h45.2c0.6,0,1.1,0.5,1.1,1.1V237z"/>
<path class="st8" d="M199.4,171.2h-45.2c-3.3,0-6.1,2.7-6.1,6.1v20.8c0,3.3,2.7,6.1,6.1,6.1h45.2c3.3,0,6.1-2.7,6.1-6.1v-20.8  C205.5,173.9,202.8,171.2,199.4,171.2z M200.5,198.1c0,0.6-0.5,1.1-1.1,1.1h-45.2c-0.6,0-1.1-0.5-1.1-1.1v-20.8  c0-0.6,0.5-1.1,1.1-1.1h45.2c0.6,0,1.1,0.5,1.1,1.1V198.1z"/>
<path class="st8" d="M134.2,217.1H36.3c-1.4,0-2.5,1.1-2.5,2.5s1.1,2.5,2.5,2.5h97.9c1.4,0,2.5-1.1,2.5-2.5S135.6,217.1,134.2,217.1  z"/>
<path class="st8" d="M134.2,230H36.3c-1.4,0-2.5,1.1-2.5,2.5s1.1,2.5,2.5,2.5h97.9c1.4,0,2.5-1.1,2.5-2.5S135.6,230,134.2,230z"/>
<path class="st8" d="M139.2,169.8c-0.7-0.5-1.6-0.5-2.4-0.1c-14,6.8-30.4,6.1-43.7-1.9c-1.6-1-3.6-1.1-5.3-0.3l-17.9,8.3  c-0.3,0.1-0.6,0-0.8-0.3c-0.1-0.2-0.1-0.3,0-0.5l8.3-17.9c0.8-1.7,0.7-3.6-0.3-5.2c-10.5-17.3-8.4-39.3,5.1-54.3  c0.9-1,0.8-2.6-0.2-3.5c-0.5-0.4-1.1-0.6-1.7-0.6H36.8c-3.3,0-6.1,2.7-6.1,6.1v98.5c0,3.3,2.7,6.1,6.1,6.1h97.5  c3.3,0,6.1-2.7,6.1-6.1v-26C140.3,171,139.9,170.2,139.2,169.8z M135.3,197.9c0,0.6-0.5,1.1-1.1,1.1H36.8c-0.6,0-1.1-0.5-1.1-1.1  V99.4c0-0.6,0.5-1.1,1.1-1.1h38.4c-12,16.5-12.9,38.6-2.3,56.1c0.1,0.2,0.1,0.3,0,0.5l-8.3,17.9c-1.3,2.8-0.1,6.1,2.7,7.4  c1.5,0.7,3.2,0.7,4.7,0l17.9-8.3c0.2-0.1,0.4-0.1,0.6,0.1l0,0c13.6,8.2,30.2,9.5,44.9,3.7L135.3,197.9z"/>
<path class="st8" d="M203.2,55.6H33c-8.3,0-15.1,6.8-15.1,15.1V84c0,1.4,1.1,2.5,2.5,2.5h76.1c0.4,0,0.7-0.1,1-0.2  c12.2-5.5,26.2-5.5,38.4,0c0.3,0.1,0.7,0.2,1,0.2h78.9c1.4,0,2.5-1.1,2.5-2.5V70.7C218.3,62.3,211.5,55.6,203.2,55.6z M213.3,81.5  h-75.9c-13.2-5.8-28.3-5.8-41.5,0h-73V70.7c0-5.6,4.5-10.1,10.1-10.1h170.2c5.6,0,10.1,4.5,10.1,10.1V81.5z"/>
<path class="st8" d="M71.6,38.8C68.1,36,63,36.5,60.2,40c-2.8,3.5-2.3,8.6,1.1,11.4s8.6,2.3,11.4-1.1c1.2-1.5,1.8-3.3,1.8-5.2  C74.6,42.7,73.5,40.4,71.6,38.8z M66.4,48.2c-1.7,0-3.1-1.4-3.1-3.1c0-1.5,1.1-2.8,2.5-3.1c0.2,0,0.4-0.1,0.6-0.1  c0.7,0,1.4,0.3,2,0.7c0.7,0.6,1.1,1.5,1.1,2.4C69.6,46.8,68.2,48.2,66.4,48.2L66.4,48.2z"/>
<path class="st8" d="M90.6,38.8c-3.5-2.8-8.6-2.3-11.4,1.1c-2.8,3.5-2.3,8.6,1.1,11.4c3.5,2.8,8.6,2.3,11.4-1.1  c1.2-1.5,1.8-3.3,1.8-5.2C93.6,42.7,92.5,40.4,90.6,38.8z M85.5,48.2c-1.7,0-3.1-1.4-3.1-3.1c0-1.5,1.1-2.8,2.5-3.1  c0.2,0,0.4-0.1,0.6-0.1c0.7,0,1.4,0.3,2,0.7c0.7,0.6,1.1,1.5,1.1,2.4C88.6,46.8,87.2,48.2,85.5,48.2z"/>
<path class="st8" d="M109.7,38.8c-3.5-2.8-8.6-2.3-11.4,1.1c-2.8,3.5-2.3,8.6,1.1,11.4c3.5,2.8,8.6,2.3,11.4-1.1  c1.2-1.5,1.8-3.3,1.8-5.2C112.7,42.7,111.6,40.4,109.7,38.8z M104.5,48.2c-1.7,0-3.1-1.4-3.1-3.1c0-1.5,1.1-2.8,2.5-3.1  c0.2,0,0.4-0.1,0.6-0.1c0.7,0,1.4,0.3,2,0.7c0.7,0.6,1.1,1.5,1.1,2.4C107.7,46.8,106.3,48.2,104.5,48.2z"/>
<path class="st8" d="M227.4,29.6H57.1c-8.3,0-15.1,6.8-15.1,15.1v13.3c0,1.4,1.1,2.5,2.5,2.5H240c1.4,0,2.5-1.1,2.5-2.5V44.7  C242.5,36.4,235.7,29.6,227.4,29.6z M237.5,55.6H47V44.7c0-5.6,4.5-10.1,10.1-10.1h170.2c5.6,0,10.1,4.5,10.1,10.1L237.5,55.6z"/>
<path class="st8" d="M199.4,93.4h-45.2c-0.6,0-1.3,0.1-1.9,0.3c-1.3,0.4-2,1.8-1.6,3.2c0.1,0.3,0.3,0.6,0.5,0.9  c6.5,7.3,10.5,16.6,11.3,26.3c0.1,1.3,1.2,2.3,2.5,2.3h34.4c3.3,0,6.1-2.7,6.1-6.1V99.4C205.5,96.1,202.8,93.4,199.4,93.4z   M200.5,120.3c0,0.6-0.5,1.1-1.1,1.1h-32.2c-1.1-8.3-4.2-16.2-9.1-23h41.3c0.6,0,1.1,0.5,1.1,1.1V120.3z"/>
<path class="st8" d="M151,90.4c-20.9-19-53.2-17.4-72.2,3.4c-15.2,16.7-17.6,41.3-6,60.7c0.1,0.2,0.1,0.3,0,0.5l-8.3,17.9  c-1.3,2.8-0.1,6.1,2.7,7.4c0.7,0.3,1.5,0.5,2.3,0.5c0.8,0,1.6-0.2,2.4-0.5l17.9-8.3c0.2-0.1,0.4-0.1,0.6,0.1  c24.2,14.5,55.6,6.6,70-17.6C173,133.5,169,106.7,151,90.4z M149.2,160.8c-14.9,15-38.1,17.8-56.2,7c-1.6-1-3.6-1.1-5.3-0.3  l-17.9,8.3c-0.3,0.1-0.6,0-0.8-0.3c-0.1-0.2-0.1-0.3,0-0.5l8.3-17.9c0.8-1.7,0.7-3.6-0.3-5.2c-13.1-21.9-5.9-50.2,15.9-63.2  c17.4-10.4,39.5-8.2,54.6,5.4c18.8,17.1,20.2,46.3,3.1,65.1C150.3,159.7,149.8,160.2,149.2,160.8L149.2,160.8z"/>
<path class="st8" d="M199.4,132.3h-34.7c-1.3,0-2.3,0.9-2.5,2.2c-1.3,9.6-5.6,18.6-12.3,25.6c-1,1-0.9,2.6,0.1,3.5  c1.1,1.1,2.6,1.7,4.2,1.7h45.2c3.3,0,6.1-2.7,6.1-6.1v-20.8C205.5,135,202.8,132.3,199.4,132.3z M200.5,159.2c0,0.6-0.5,1.1-1.1,1.1  h-43c5.4-6.6,9-14.5,10.5-23h32.5c0.6,0,1.1,0.5,1.1,1.1V159.2z"/>
<path class="st8" d="M227.4,29.6H57.1c-8.3,0-15.1,6.8-15.1,15.1v13.3c0,1.4,1.1,2.5,2.5,2.5h158.7c5.6,0,10.1,4.5,10.1,10.1v156.9  c0,1.4,1.1,2.5,2.5,2.5h11.6c8.3,0,15.1-6.8,15.1-15.1V44.7C242.5,36.4,235.7,29.6,227.4,29.6z M237.5,214.9  c0,5.6-4.5,10.1-10.1,10.1h-9.1V70.7c0-8.3-6.8-15.1-15.1-15.1H47V44.7c0-5.6,4.5-10.1,10.1-10.1h170.2c5.6,0,10.1,4.5,10.1,10.1  L237.5,214.9z"/>
<path class="st8" d="M139.9,121.8c-0.4-1.4-1.6-2.4-3-2.6l-11.3-1.6l-5-10.2c-0.9-1.9-3.2-2.6-5-1.7c-0.7,0.4-1.3,1-1.7,1.7l-5,10.2  l-11.3,1.6c-2.1,0.3-3.5,2.2-3.2,4.3c0.1,0.8,0.5,1.6,1.1,2.1l8.2,8l-1.9,11.2c-0.4,2,1,4,3.1,4.3c0.8,0.1,1.7,0,2.4-0.4l10.1-5.3  l10.1,5.3c1.8,1,4.1,0.3,5.1-1.6c0.4-0.7,0.5-1.6,0.4-2.4l-1.9-11.2l8.2-8C140,124.6,140.3,123.1,139.9,121.8z M126.8,130.5  c-0.9,0.9-1.3,2.1-1.1,3.3l1.6,9.4l-8.4-4.4c-1.1-0.6-2.4-0.6-3.5,0l-8.4,4.4l1.6-9.4c0.2-1.2-0.2-2.5-1.1-3.3l-6.8-6.7l9.4-1.4  c1.2-0.2,2.3-0.9,2.8-2.1l4.2-8.5l4.2,8.5c0.5,1.1,1.6,1.9,2.8,2.1l9.4,1.4L126.8,130.5z"/>
<path class="st8" d="M157.8,123.4c-0.4-1.2-1.4-2.1-2.7-2.3l-6.9-1l-3.1-6.2c-0.8-1.6-2.8-2.3-4.4-1.5c-0.7,0.3-1.2,0.9-1.5,1.5  l-3.2,6.5c-0.7,0.5-1.1,1.2-1.1,2.1l-4.1,4c-1,1-1,2.5,0,3.5c0,0,0,0,0,0l1.6,1.6l-1.2,6.8c-0.3,1.8,0.9,3.5,2.7,3.8  c0.7,0.1,1.5,0,2.1-0.3l6.1-3.2l6.1,3.2c1.6,0.9,3.6,0.2,4.5-1.4c0.3-0.6,0.5-1.4,0.3-2.1l-1.2-6.8l5-4.8  C157.9,125.9,158.2,124.6,157.8,123.4z M147.9,128.7c-0.8,0.8-1.1,1.9-1,2.9l0.7,4.4l-3.9-2.1c-1-0.5-2.1-0.5-3.1,0l-3.9,2.1  l0.7-4.4c0.2-1.1-0.2-2.2-1-2.9l-0.4-0.4l2.8-2.7c0.5-0.5,0.9-1.2,1.1-2c0.1-0.2,0.2-0.3,0.3-0.5l2-4l2,4c0.5,1,1.4,1.7,2.5,1.8  l4.4,0.6L147.9,128.7z"/>
<path class="st8" d="M104.2,128.3c0-0.7-0.3-1.3-0.8-1.8l-4.1-4c0-0.8-0.4-1.6-1.1-2.1l-3.2-6.5c-0.8-1.6-2.8-2.3-4.4-1.5  c-0.7,0.3-1.2,0.9-1.5,1.5l-3.1,6.2l-6.9,1c-1.8,0.3-3.1,1.9-2.8,3.8c0.1,0.7,0.4,1.4,1,1.9l5,4.8l-1.2,6.8  c-0.3,1.8,0.9,3.5,2.7,3.8c0.7,0.1,1.5,0,2.1-0.3l6.1-3.2l6.1,3.2c1.6,0.9,3.6,0.2,4.5-1.4c0.3-0.6,0.5-1.4,0.3-2.1l-1.2-6.8  l1.6-1.6C104,129.6,104.2,129,104.2,128.3z M97.7,128.7c-0.8,0.8-1.1,1.9-1,2.9l0,0l0.7,4.4l-3.9-2.1c-1-0.5-2.1-0.5-3.1,0l-3.9,2.1  l0.7-4.4c0.2-1.1-0.2-2.2-1-2.9l-3.2-3.1l4.4-0.6c1.1-0.2,2-0.8,2.5-1.8l2-4l2,4c0.1,0.2,0.2,0.3,0.3,0.5c0.1,0.7,0.5,1.4,1.1,2  l2.8,2.7L97.7,128.7z"/>
<path class="st3" d="M24.7,37h-1.8v-1.8c0-1.4-1.1-2.5-2.5-2.5s-2.5,1.1-2.5,2.5V37H16c-1.4,0-2.5,1.1-2.5,2.5S14.7,42,16,42h1.8  v1.8c0,1.4,1.1,2.5,2.5,2.5s2.5-1.1,2.5-2.5V42h1.8c1.4,0,2.5-1.1,2.5-2.5S26.1,37,24.7,37L24.7,37z"/>
<path class="st2" d="M242.4,240c0-0.2-0.1-0.3-0.1-0.5c-0.1-0.1-0.1-0.3-0.2-0.4c-0.1-0.1-0.2-0.3-0.3-0.4c-1-0.9-2.5-0.9-3.5,0  c-0.1,0.1-0.2,0.2-0.3,0.4c-0.2,0.3-0.3,0.6-0.4,0.9c-0.1,0.3-0.1,0.7,0,1c0,0.2,0.1,0.3,0.1,0.5c0.1,0.2,0.1,0.3,0.2,0.4  c0.1,0.1,0.2,0.3,0.3,0.4c1,1,2.5,1,3.5,0c0,0,0,0,0,0c0.1-0.1,0.2-0.2,0.3-0.4c0.1-0.1,0.2-0.3,0.2-0.4c0.1-0.1,0.1-0.3,0.1-0.5  C242.5,240.7,242.5,240.3,242.4,240z"/>
<path class="st7" d="M118.3,18.7c0-0.2-0.1-0.3-0.1-0.5c-0.1-0.1-0.1-0.3-0.2-0.4c-0.1-0.1-0.2-0.3-0.3-0.4c-1-0.9-2.5-0.9-3.5,0  c-0.1,0.1-0.2,0.2-0.3,0.4c-0.2,0.3-0.3,0.6-0.4,0.9c-0.1,0.3-0.1,0.7,0,1c0,0.2,0.1,0.3,0.1,0.5c0.1,0.2,0.1,0.3,0.2,0.4  c0.1,0.1,0.2,0.3,0.3,0.4c1,1,2.5,1,3.5,0c0,0,0,0,0,0c0.1-0.1,0.2-0.2,0.3-0.4c0.1-0.1,0.2-0.3,0.2-0.4c0.1-0.1,0.1-0.3,0.1-0.5  C118.4,19.3,118.4,19,118.3,18.7z"/>
<path class="st4" d="M94.2,8.2c-4.1-0.8-7.2-4-8-8C86.2,0.1,86.1,0,86,0c-0.1,0-0.1,0.1-0.2,0.2c-0.8,4.1-4,7.2-8,8  c-0.1,0-0.2,0.1-0.2,0.2c0,0.1,0.1,0.1,0.2,0.2c4.1,0.8,7.2,4,8,8c0,0.1,0.1,0.2,0.2,0.2c0.1,0,0.1-0.1,0.2-0.2c0.8-4.1,4-7.2,8-8  c0.1,0,0.2-0.1,0.2-0.2C94.3,8.2,94.3,8.2,94.2,8.2z"/>
</svg>
