<?xml version="1.0" encoding="utf-8"?>
<!-- Generator: Adobe Illustrator 21.0.0, SVG Export Plug-In . SVG Version: 6.00 Build 0)  -->
<svg xmlns="http://www.w3.org/2000/svg" xmlns:xlink="http://www.w3.org/1999/xlink" version="1.1" id="Layer_1" x="0px" y="0px" viewBox="0 0 256 256" style="enable-background:new 0 0 256 256;" xml:space="preserve" width="512" height="512">
<style type="text/css">
	.st0{fill:#E9E9EA;}
	.st1{fill:#898989;}
	.st2{fill:#B26E3B;}
	.st3{fill:#6D6C6B;}
	.st4{fill:#EA4647;}
	.st5{fill:#FFCD29;}
	.st6{fill:#FFAE2C;}
	.st7{fill:#55ACD5;}
	.st8{fill:#6DCC6D;}
	.st9{fill:#231F20;}
</style>
<g id="Layer_55">
	<path class="st0" d="M198.9,163.3L198.9,163.3c-7.8,0-14.1-6.4-14.2-14.2c-0.1,7.8-6.5,14.1-14.3,14.1c-7.7-0.1-14-6.3-14.1-14.1   c0,7.8-6.4,14.1-14.2,14.2l0,0c-7.8,0-14.1-6.4-14.2-14.2c0,7.8-6.4,14.1-14.2,14.2l0,0c-7.8,0-14.1-6.4-14.2-14.2   c0,7.8-6.4,14.1-14.2,14.2l0,0c-7.8,0-14.1-6.4-14.2-14.2l0,0c0,7.8-6.4,14.1-14.2,14.2l0,0c-3.8,0-7.4-1.5-10.1-4.2v83.2h161.8   V159C206.3,161.7,202.6,163.3,198.9,163.3z"/>
	<path class="st1" d="M209.3,242.2H46.7c-3.1,0-5.6,2.5-5.6,5.6s2.5,5.6,5.6,5.6h162.7c3.1,0,5.6-2.5,5.6-5.6   S212.5,242.2,209.3,242.2z"/>
	<path class="st2" d="M128,175.4L128,175.4c-17.9,0.1-32.3,14.5-32.4,32.4v34.5h64.7v-34.5C160.3,189.9,145.9,175.4,128,175.4z"/>
	<path class="st2" d="M128,175.4L128,175.4c-17.9,0.1-32.3,14.5-32.4,32.4v34.5h32.7v-66.8C128.2,175.4,128.1,175.4,128,175.4z"/>
	<rect x="47.1" y="225.3" class="st3" width="48.5" height="16.9"/>
	<rect x="160.4" y="225.3" class="st3" width="48.5" height="16.9"/>
	<path class="st4" d="M207.4,100.4h-22.7v41.2H213v-35.5C213,103,210.5,100.4,207.4,100.4L207.4,100.4z"/>
	<rect x="156.3" y="100.4" class="st5" width="28.3" height="41.2"/>
	<path class="st4" d="M156.3,141.6v7.4c0.1,7.8,6.5,14.1,14.3,14.1c7.7-0.1,14-6.3,14.1-14.1v-7.4H156.3z"/>
	<path class="st5" d="M184.7,141.6v7.4c0,7.8,6.4,14.1,14.2,14.2l0,0c7.8,0,14.1-6.4,14.2-14.2v-7.4H184.7z"/>
	<path class="st5" d="M128,141.6v7.4c0,7.8,6.4,14.1,14.2,14.2l0,0c7.8,0,14.1-6.4,14.2-14.2v-7.4H128z"/>
	<path class="st4" d="M99.7,141.6v7.4c0,7.8,6.4,14.1,14.2,14.2l0,0c7.8,0,14.1-6.4,14.2-14.2v-7.4L99.7,141.6z"/>
	<path class="st5" d="M71.3,141.6v7.4c0,7.8,6.4,14.1,14.2,14.2l0,0c7.8,0,14.1-6.4,14.2-14.2v-7.4H71.3z"/>
	<path class="st4" d="M43,141.6v7.4c0,7.8,6.4,14.1,14.2,14.2l0,0c7.8,0,14.1-6.4,14.2-14.2v-7.4H43z"/>
	<rect x="128" y="100.4" class="st4" width="28.3" height="41.2"/>
	<rect x="99.7" y="100.4" class="st5" width="28.3" height="41.2"/>
	<rect x="71.3" y="100.4" class="st4" width="28.3" height="41.2"/>
	<path class="st5" d="M48.6,100.4c-3.1,0-5.7,2.5-5.7,5.7v35.5h28.3v-41.2L48.6,100.4z"/>
	<path class="st0" d="M199.5,57.8h-16.5l1.2,7.1c0.1,0.7-0.4,1.5-1.1,1.6c-0.3,0.1-0.6,0-0.9-0.1l-11.6-6.1c-0.4-0.2-0.9-0.2-1.3,0   l-11.6,6.1c-0.7,0.4-1.5,0.1-1.8-0.6c-0.1-0.3-0.2-0.6-0.1-0.9l1.2-7.1h-10.1l3,17.7c0.2,1.1-0.6,2.2-1.7,2.4   c-0.5,0.1-0.9,0-1.3-0.2L129,68.3c-0.6-0.3-1.3-0.3-2,0l-17.9,9.4c-1,0.5-2.3,0.1-2.8-0.9c-0.2-0.4-0.3-0.9-0.2-1.3l3-17.7H99   l1.2,7.1c0.1,0.7-0.4,1.5-1.1,1.6c-0.3,0.1-0.6,0-0.9-0.1l-11.6-6.1c-0.4-0.2-0.9-0.2-1.3,0l-11.6,6.1c-0.7,0.4-1.5,0.1-1.8-0.6   c-0.1-0.3-0.2-0.6-0.1-0.9l1.2-7.1H56.5c-3.8,0-6.9,3.1-6.9,6.9v16.6c0,3.8,3.1,6.9,6.9,6.9h143.1c3.8,0,6.9-3.1,6.9-6.9V64.7   C206.4,60.9,203.4,57.8,199.5,57.8z"/>
	<path class="st5" d="M161.6,39.6c0.8-0.8,0.9-2.1,0-3c-0.3-0.3-0.7-0.5-1.2-0.6l-20-2.9c-0.7-0.1-1.3-0.5-1.6-1.2l-8.9-18.1   c-0.5-1-1.8-1.5-2.8-1c-0.4,0.2-0.8,0.5-1,1l-8.9,18.1c-0.3,0.6-0.9,1.1-1.6,1.2l-20,2.9c-1.2,0.2-2,1.2-1.8,2.4   c0.1,0.5,0.3,0.9,0.6,1.2l14.5,14.1c0.5,0.5,0.7,1.2,0.6,1.9l-3.4,19.9c-0.2,1.1,0.6,2.2,1.7,2.4c0.5,0.1,0.9,0,1.3-0.2l17.9-9.4   c0.6-0.3,1.3-0.3,2,0l17.9,9.4c1,0.5,2.3,0.1,2.8-0.9c0.2-0.4,0.3-0.9,0.2-1.3l-3.4-19.9c-0.1-0.7,0.1-1.4,0.6-1.9L161.6,39.6z"/>
	<path class="st6" d="M191.8,41.6c0.5-0.5,0.6-1.4,0-1.9c-0.2-0.2-0.5-0.4-0.8-0.4l-13-1.9c-0.4-0.1-0.8-0.3-1-0.7l-5.8-11.8   c-0.3-0.7-1.2-1-1.8-0.6c-0.3,0.1-0.5,0.4-0.6,0.6L163,36.6c-0.2,0.4-0.5,0.6-1,0.7c0.3,0.8,0.1,1.7-0.5,2.3l-7.7,7.5l3.8,3.7   c0.3,0.3,0.5,0.8,0.4,1.2l-2.2,12.9c-0.1,0.7,0.4,1.5,1.1,1.6c0.3,0.1,0.6,0,0.9-0.1l11.6-6.1c0.4-0.2,0.9-0.2,1.3,0l11.6,6.1   c0.7,0.4,1.5,0.1,1.8-0.6c0.1-0.3,0.2-0.6,0.1-0.9L182.1,52c-0.1-0.4,0.1-0.9,0.4-1.2L191.8,41.6z"/>
	<path class="st6" d="M98,52c-0.1-0.4,0.1-0.9,0.4-1.2l3.8-3.7l-7.7-7.5c-0.6-0.6-0.8-1.5-0.5-2.3c-0.4-0.1-0.8-0.3-1-0.7l-5.8-11.8   c-0.3-0.7-1.2-1-1.8-0.6c-0.3,0.1-0.5,0.4-0.6,0.6l-5.8,11.8c-0.2,0.4-0.6,0.7-1,0.7l-13,1.9c-0.7,0.1-1.3,0.8-1.2,1.6   c0,0.3,0.2,0.6,0.4,0.8l9.4,9.2c0.3,0.3,0.5,0.8,0.4,1.2l-2.2,12.9c-0.1,0.7,0.4,1.5,1.1,1.6c0.3,0.1,0.6,0,0.9-0.1l11.6-6.1   c0.4-0.2,0.9-0.2,1.3,0l11.6,6.1c0.7,0.4,1.5,0.1,1.8-0.6c0.1-0.3,0.2-0.6,0.1-0.9L98,52z"/>
	<path class="st4" d="M190.7,6c-3-0.6-5.3-2.9-5.9-5.9c0-0.1-0.1-0.1-0.2-0.1c-0.1,0-0.1,0.1-0.1,0.1c-0.6,3-2.9,5.3-5.9,5.9   c-0.1,0-0.1,0.1-0.1,0.2c0,0.1,0.1,0.1,0.1,0.1c3,0.6,5.3,2.9,5.9,5.9c0,0.1,0.1,0.1,0.2,0.1c0.1,0,0.1-0.1,0.1-0.1   c0.6-3,2.9-5.3,5.9-5.9c0.1,0,0.1-0.1,0.1-0.2C190.8,6.1,190.8,6,190.7,6z"/>
	<path class="st7" d="M22.6,139.1h-1.8v-1.8c0-1.4-1.1-2.5-2.5-2.5s-2.5,1.1-2.5,2.5v1.8h-1.8c-1.4,0-2.5,1.1-2.5,2.5   s1.1,2.5,2.5,2.5h1.8v1.8c0,1.4,1.1,2.5,2.5,2.5s2.5-1.1,2.5-2.5v-1.8h1.8c1.4,0,2.5-1.1,2.5-2.5S24,139.1,22.6,139.1L22.6,139.1z"/>
	<path class="st5" d="M158.3,12.5c-1.4,0-2.5,1.1-2.5,2.5s1.1,2.5,2.5,2.5s2.5-1.1,2.5-2.5C160.8,13.6,159.7,12.5,158.3,12.5z"/>
	<path class="st8" d="M27.6,116.1c-1.4,0-2.5,1.1-2.5,2.5s1.1,2.5,2.5,2.5s2.5-1.1,2.5-2.5C30.1,117.2,29,116.1,27.6,116.1z"/>
	<path class="st9" d="M209.3,239.7H46.7c-4.5,0-8.1,3.6-8.1,8.1s3.6,8.1,8.1,8.1h162.7c4.5,0,8.1-3.6,8.1-8.1   S213.8,239.7,209.3,239.7z M209.3,251H46.7c-1.7,0-3.1-1.4-3.1-3.1s1.4-3.1,3.1-3.1l0,0h162.7c1.7,0,3.1,1.4,3.1,3.1   S211.1,251,209.3,251z"/>
	<path class="st9" d="M128,172.9c-19.2,0-34.8,15.6-34.9,34.9v34.5c0,1.4,1.1,2.5,2.5,2.5h64.7c1.4,0,2.5-1.1,2.5-2.5v-34.5   C162.8,188.5,147.2,172.9,128,172.9z M157.9,239.7H98.1v-32c0-16.5,13.4-29.9,29.9-29.9s29.9,13.4,29.9,29.9V239.7z"/>
	<path class="st9" d="M128.3,172.9l-0.3,0c-19.2,0-34.8,15.6-34.9,34.9v34.5c0,1.4,1.1,2.5,2.5,2.5h32.7c1.4,0,2.5-1.1,2.5-2.5   v-66.8C130.8,174,129.6,172.9,128.3,172.9z M125.8,239.7H98.1v-32c0-15.6,12.1-28.6,27.7-29.8V239.7z"/>
	<path class="st9" d="M95.6,222.8H47.1c-1.4,0-2.5,1.1-2.5,2.5v16.9c0,1.4,1.1,2.5,2.5,2.5h48.5c1.4,0,2.5-1.1,2.5-2.5v-16.9   C98.1,223.9,97,222.8,95.6,222.8z M93.1,239.7H49.6v-11.9h43.5V239.7z"/>
	<path class="st9" d="M208.9,222.8h-48.5c-1.4,0-2.5,1.1-2.5,2.5v16.9c0,1.4,1.1,2.5,2.5,2.5h48.5c1.4,0,2.5-1.1,2.5-2.5v-16.9   C211.4,223.9,210.3,222.8,208.9,222.8L208.9,222.8z M206.4,239.7h-43.5v-11.9h43.5L206.4,239.7z"/>
	<path class="st9" d="M164.5,36.7c-0.5-1.7-2-2.9-3.7-3.1L141,30.7l-8.8-17.9c-1.1-2.3-3.9-3.2-6.2-2.1c-0.9,0.4-1.6,1.2-2.1,2.1   L115,30.7l-19.8,2.9c-2.5,0.4-4.3,2.7-3.9,5.2c0.1,1,0.6,1.9,1.4,2.7l14.3,14L103.6,75c-0.4,2.5,1.3,4.9,3.8,5.3c1,0.2,2,0,2.9-0.5   l17.7-9.3l17.7,9.3c2.3,1.2,5,0.3,6.2-1.9c0.5-0.9,0.6-1.9,0.5-2.9L149,55.3l14.3-14C164.6,40.2,165,38.3,164.5,36.7z M145.4,51.9   c-1.1,1.1-1.6,2.6-1.3,4.1l3.3,19.1l-17.2-9c-1.3-0.7-2.9-0.7-4.3,0l-17.2,9L112,56c0.3-1.5-0.2-3-1.3-4.1L96.8,38.4l19.2-2.8   c1.5-0.2,2.8-1.2,3.5-2.5l8.6-17.4l8.6,17.4c0.7,1.4,2,2.3,3.5,2.5l19.2,2.8L145.4,51.9z"/>
	<path class="st9" d="M194.6,39.4c-0.5-1.4-1.7-2.4-3.1-2.6L179.1,35l-5.5-11.2c-0.9-1.9-3.3-2.7-5.2-1.8c-0.8,0.4-1.4,1-1.8,1.8   L161,35.1c-1.1,0.5-1.6,1.7-1.3,2.9l-7.5,7.3c-1,1-1,2.5,0,3.5c0,0,0,0,0,0l3.3,3.2l-2.1,12.3c-0.4,2.1,1.1,4.1,3.2,4.5   c0.8,0.1,1.7,0,2.5-0.4l11.1-5.8l11.1,5.8c1.9,1,4.2,0.3,5.2-1.6c0.4-0.8,0.5-1.6,0.4-2.5l-2.1-12.3l9-8.7l0,0   C194.6,42.4,195,40.8,194.6,39.4z M180.7,49c-0.9,0.9-1.3,2.2-1.1,3.4l1.8,10.7l-9.6-5c-1.1-0.6-2.5-0.6-3.6,0l-9.6,5l1.8-10.7   c0.2-1.3-0.2-2.5-1.1-3.4l-1.9-1.9l5.9-5.7c0.8-0.7,1.2-1.7,1.4-2.8c0.2-0.3,0.4-0.5,0.6-0.9L170,28l4.8,9.7   c0.6,1.1,1.7,1.9,2.9,2.1l10.7,1.6L180.7,49z"/>
	<path class="st9" d="M104.6,47.1c0-0.7-0.3-1.3-0.8-1.8L96.4,38c0.3-1.2-0.3-2.4-1.3-2.9l-5.6-11.3c-0.9-1.9-3.3-2.7-5.2-1.8   c-0.8,0.4-1.4,1-1.8,1.8L76.9,35l-12.4,1.8c-2.1,0.3-3.6,2.3-3.3,4.4c0.1,0.8,0.5,1.6,1.1,2.2l9,8.7l-2.1,12.3   c-0.4,2.1,1,4.1,3.1,4.5c0.8,0.1,1.7,0,2.5-0.4L86,62.7L97,68.5c1.9,1,4.2,0.3,5.2-1.6c0.4-0.8,0.5-1.6,0.4-2.5l-2.1-12.3l3.3-3.2   C104.4,48.4,104.6,47.8,104.6,47.1z M95.5,52.4l1.8,10.7l-9.6-5c-1.1-0.6-2.5-0.6-3.6,0l-9.6,5l1.8-10.7c0.2-1.3-0.2-2.5-1.1-3.4   l-7.8-7.6l10.7-1.6c1.3-0.2,2.4-1,2.9-2.1L86,28l4.8,9.7c0.2,0.3,0.3,0.6,0.6,0.9c0.1,1.1,0.6,2,1.4,2.8l5.9,5.7L96.6,49   C95.7,49.8,95.3,51.1,95.5,52.4z M100.4,51.5L100.4,51.5L100.4,51.5z"/>
	<path class="st9" d="M96.4,38.1L96.4,38.1c0-0.1-0.1-0.2-0.1-0.2l0,0c-0.6-1.3-2.1-1.8-3.3-1.2c-1.2,0.6-1.8,2-1.3,3.2   c0,0.1,0.1,0.1,0.1,0.2l0,0c0,0.1,0.1,0.1,0.1,0.2c0.7,1.2,2.2,1.7,3.4,1C96.4,40.7,96.8,39.3,96.4,38.1L96.4,38.1z"/>
	<path class="st9" d="M96.3,38.3c0-0.1,0-0.2,0-0.3c-0.2-1.4-1.5-2.3-2.9-2c-1.2,0.2-2.1,1.3-2.1,2.5c0,0.1,0,0.2,0,0.2   c0,0.1,0,0.2,0,0.3c0.3,1.4,1.6,2.3,2.9,2c1.2-0.2,2-1.3,2-2.5C96.3,38.4,96.3,38.4,96.3,38.3z"/>
	<path class="st9" d="M163,36.7c-1.3-0.6-2.7,0-3.3,1.2v0c0,0,0,0.1-0.1,0.2l0,0c-0.6,1.3,0,2.7,1.3,3.3c1.2,0.5,2.6,0,3.2-1.1l0,0   l0,0l0,0c0,0,0-0.1,0.1-0.1l0,0c0-0.1,0.1-0.2,0.1-0.3C164.8,38.7,164.2,37.3,163,36.7z"/>
	<path class="st9" d="M162.7,36c-1.4-0.3-2.7,0.6-3,1.9c0,0.1,0,0.2,0,0.3c0,0.1,0,0.2,0,0.3c0,1.4,1.1,2.5,2.5,2.5   c1.2,0,2.2-0.8,2.4-2c0-0.1,0-0.2,0-0.3c0-0.1,0-0.2,0-0.3C164.7,37.3,163.8,36.3,162.7,36z"/>
	<path class="st9" d="M199.5,55.3h-16.5c-1.4,0-2.5,1.1-2.5,2.5c0,0.1,0,0.3,0,0.4l0.8,4.8l-9.6-5c-1.1-0.6-2.5-0.6-3.6,0l-9.6,5   l0.8-4.8c0.2-1.4-0.7-2.7-2-2.9c-0.1,0-0.3,0-0.4,0h-10.1c-1.4,0-2.5,1.1-2.5,2.5c0,0.1,0,0.3,0,0.4l2.9,16.9l-17.2-9   c-1.3-0.7-2.9-0.7-4.3,0l-17.2,9l2.9-16.9c0.2-1.4-0.7-2.7-2-2.9c-0.1,0-0.3,0-0.4,0H99c-1.4,0-2.5,1.1-2.5,2.5c0,0.1,0,0.3,0,0.4   l0.8,4.8l-9.6-5c-1.1-0.6-2.5-0.6-3.6,0l-9.6,5l0.8-4.8c0.2-1.4-0.7-2.7-2-2.9c-0.1,0-0.3,0-0.4,0H56.5c-5.2,0-9.4,4.2-9.4,9.4   v16.6c0,5.2,4.2,9.4,9.4,9.4h143.1c5.2,0,9.4-4.2,9.4-9.4V64.7C208.9,59.5,204.7,55.3,199.5,55.3z M204,81.3c0,2.4-2,4.4-4.4,4.4   H56.5c-2.4,0-4.4-2-4.4-4.4V64.7c0-2.4,2-4.4,4.4-4.4H70l-0.7,4.2c-0.4,2.1,1.1,4.1,3.2,4.5c0.8,0.1,1.7,0,2.5-0.4L86,62.7L97,68.6   c1.9,1,4.2,0.3,5.2-1.6c0.4-0.8,0.5-1.6,0.4-2.5l-0.7-4.2h4.2L103.6,75c-0.4,2.5,1.3,4.9,3.8,5.3c1,0.2,2,0,2.9-0.5l17.7-9.3   l17.7,9.3c2.3,1.2,5,0.3,6.2-1.9c0.5-0.9,0.6-1.9,0.5-2.9l-2.5-14.7h4.2l-0.7,4.2c-0.4,2.1,1.1,4.1,3.2,4.5c0.8,0.1,1.7,0,2.5-0.4   l11.1-5.8l11.1,5.8c1.9,1,4.2,0.3,5.2-1.6c0.4-0.8,0.5-1.6,0.4-2.5l-0.7-4.2h13.5c2.4,0,4.4,2,4.4,4.4V81.3z"/>
	<path class="st9" d="M96.4,38.1L96.4,38.1c0-0.1-0.1-0.2-0.1-0.2l0,0c-0.6-1.3-2.1-1.8-3.3-1.2c-1.2,0.6-1.8,2-1.3,3.2   c0,0.1,0.1,0.1,0.1,0.2l0,0c0,0.1,0.1,0.1,0.1,0.2c0.7,1.2,2.2,1.7,3.4,1C96.4,40.7,96.8,39.3,96.4,38.1L96.4,38.1z"/>
	<path class="st9" d="M96.3,38.3c0-0.1,0-0.2,0-0.3c-0.2-1.4-1.5-2.3-2.9-2c-1.2,0.2-2.1,1.3-2.1,2.5c0,0.1,0,0.2,0,0.2   c0,0.1,0,0.2,0,0.3c0.3,1.4,1.6,2.3,2.9,2c1.2-0.2,2-1.3,2-2.5C96.3,38.4,96.3,38.4,96.3,38.3z"/>
	<path class="st9" d="M163,36.7c-1.3-0.6-2.7,0-3.3,1.2v0c0,0,0,0.1-0.1,0.2l0,0c-0.6,1.3,0,2.7,1.3,3.3c1.2,0.5,2.6,0,3.2-1.1l0,0   l0,0l0,0c0,0,0-0.1,0.1-0.1l0,0c0-0.1,0.1-0.2,0.1-0.3C164.8,38.7,164.2,37.3,163,36.7z"/>
	<path class="st9" d="M162.7,36c-1.4-0.3-2.7,0.6-3,1.9c0,0.1,0,0.2,0,0.3c0,0.1,0,0.2,0,0.3c0,1.4,1.1,2.5,2.5,2.5   c1.2,0,2.2-0.8,2.4-2c0-0.1,0-0.2,0-0.3c0-0.1,0-0.2,0-0.3C164.7,37.3,163.8,36.3,162.7,36z"/>
	<path class="st9" d="M63.3,85.7c-1.4,0-2.5,1.1-2.5,2.5v11.3c0,1.4,1.1,2.5,2.5,2.5s2.5-1.1,2.5-2.5l0,0V88.2   C65.8,86.9,64.7,85.7,63.3,85.7L63.3,85.7z"/>
	<path class="st9" d="M192.7,85.7c-1.4,0-2.5,1.1-2.5,2.5v11.3c0,1.4,1.1,2.5,2.5,2.5s2.5-1.1,2.5-2.5V88.2   C195.2,86.9,194.1,85.7,192.7,85.7z"/>
	<path class="st9" d="M207.4,97.9h-22.7c-1.4,0-2.5,1.1-2.5,2.5v41.2c0,1.4,1.1,2.5,2.5,2.5H213c1.4,0,2.5-1.1,2.5-2.5v-35.5   C215.5,101.6,211.9,97.9,207.4,97.9z M210.5,139.1h-23.3v-36.2h20.2c1.7,0,3.2,1.4,3.2,3.2L210.5,139.1z"/>
	<path class="st9" d="M184.7,97.9h-28.3c-1.4,0-2.5,1.1-2.5,2.5v41.2c0,1.4,1.1,2.5,2.5,2.5h28.3c1.4,0,2.5-1.1,2.5-2.5v-41.2   C187.2,99.1,186.1,97.9,184.7,97.9C184.7,97.9,184.7,97.9,184.7,97.9z M182.2,139.1h-23.3v-36.2h23.3V139.1z"/>
	<path class="st9" d="M184.7,139.1h-28.3c-1.4,0-2.5,1.1-2.5,2.5v7.4c0,9.2,7.5,16.7,16.7,16.7c9.2,0,16.7-7.5,16.7-16.7v-7.4   C187.2,140.3,186.1,139.1,184.7,139.1z M182.2,149.1c0,6.4-5.2,11.7-11.7,11.7c-6.4,0-11.7-5.2-11.7-11.7v-4.9h23.3V149.1z"/>
	<path class="st9" d="M213,139.1h-28.3c-1.4,0-2.5,1.1-2.5,2.5v7.4c0,9.2,7.5,16.7,16.7,16.7c9.2,0,16.7-7.5,16.7-16.7v-7.4   C215.5,140.3,214.4,139.1,213,139.1C213,139.1,213,139.1,213,139.1z M210.5,149.1c0,6.4-5.2,11.7-11.7,11.7   c-6.4,0-11.7-5.2-11.7-11.7v-4.9h23.3V149.1z"/>
	<path class="st9" d="M156.3,139.1H128c-1.4,0-2.5,1.1-2.5,2.5v7.4c0,9.2,7.5,16.7,16.7,16.7c9.2,0,16.7-7.5,16.7-16.7c0,0,0,0,0,0   v-7.4C158.8,140.3,157.7,139.1,156.3,139.1z M153.8,149.1c0,6.4-5.2,11.7-11.7,11.7c-6.4,0-11.7-5.2-11.7-11.7v-4.9h23.3V149.1z"/>
	<path class="st9" d="M128,139.1H99.7c-1.4,0-2.5,1.1-2.5,2.5v7.4c0,9.2,7.5,16.7,16.7,16.7s16.7-7.5,16.7-16.7v-7.4   C130.5,140.3,129.4,139.1,128,139.1z M125.5,149.1c0,6.4-5.2,11.7-11.7,11.7s-11.7-5.2-11.7-11.7v-4.9h23.3V149.1z"/>
	<path class="st9" d="M99.7,139.1H71.3c-1.4,0-2.5,1.1-2.5,2.5v7.4c0,9.2,7.5,16.7,16.7,16.7s16.7-7.5,16.7-16.7c0,0,0,0,0,0v-7.4   C102.2,140.3,101,139.1,99.7,139.1L99.7,139.1z M97.2,149.1c0,6.4-5.2,11.7-11.7,11.7c-6.4,0-11.7-5.2-11.7-11.7v-4.9h23.3V149.1z"/>
	<path class="st9" d="M71.3,139.1H43c-1.4,0-2.5,1.1-2.5,2.5v7.4c0,9.2,7.5,16.7,16.7,16.7s16.7-7.5,16.7-16.7c0,0,0,0,0,0v-7.4   C73.8,140.3,72.7,139.1,71.3,139.1C71.3,139.1,71.3,139.1,71.3,139.1z M68.8,149.1c0,6.4-5.2,11.7-11.7,11.7s-11.7-5.2-11.7-11.7   v-4.9h23.3V149.1z"/>
	<path class="st9" d="M156.3,97.9H128c-1.4,0-2.5,1.1-2.5,2.5v41.2c0,1.4,1.1,2.5,2.5,2.5h28.3c1.4,0,2.5-1.1,2.5-2.5v-41.2   C158.8,99.1,157.7,97.9,156.3,97.9C156.3,97.9,156.3,97.9,156.3,97.9z M153.8,139.1h-23.3v-36.2h23.3V139.1z"/>
	<path class="st9" d="M128,97.9H99.7c-1.4,0-2.5,1.1-2.5,2.5v41.2c0,1.4,1.1,2.5,2.5,2.5H128c1.4,0,2.5-1.1,2.5-2.5v-41.2   C130.5,99.1,129.4,97.9,128,97.9C128,97.9,128,97.9,128,97.9z M125.5,139.1h-23.3v-36.2h23.3V139.1z"/>
	<path class="st9" d="M99.7,97.9H71.3c-1.4,0-2.5,1.1-2.5,2.5v41.2c0,1.4,1.1,2.5,2.5,2.5h28.3c1.4,0,2.5-1.1,2.5-2.5v-41.2   C102.2,99.1,101,97.9,99.7,97.9L99.7,97.9z M97.2,139.1H73.8v-36.2h23.3V139.1z"/>
	<path class="st9" d="M71.3,97.9H48.6c-4.5,0-8.2,3.7-8.2,8.2v35.5c0,1.4,1.1,2.5,2.5,2.5h28.3c1.4,0,2.5-1.1,2.5-2.5v-41.2   C73.8,99.1,72.7,97.9,71.3,97.9L71.3,97.9z M68.8,139.1H45.5v-33c0-1.7,1.4-3.2,3.2-3.2h20.2V139.1z"/>
	<path class="st9" d="M209.9,156.7c-0.9-0.4-2-0.2-2.7,0.6c-4.5,4.6-11.9,4.6-16.5,0.1c-2.2-2.2-3.5-5.2-3.5-8.3   c0-1.4-1.1-2.5-2.5-2.5s-2.5,1.1-2.5,2.5c0,6.4-5.2,11.7-11.7,11.7c-6.4,0-11.7-5.2-11.7-11.7c0-1.4-1.1-2.5-2.5-2.5   s-2.5,1.1-2.5,2.5c0,6.4-5.2,11.7-11.7,11.7c-6.4,0-11.7-5.2-11.7-11.7c0-1.4-1.1-2.5-2.5-2.5c-1.4,0-2.5,1.1-2.5,2.5   c0,6.4-5.2,11.7-11.7,11.7c-6.4,0-11.7-5.2-11.7-11.7c0-1.4-1.1-2.5-2.5-2.5s-2.5,1.1-2.5,2.5c0,6.4-5.2,11.7-11.7,11.7   s-11.7-5.2-11.7-11.7c0-1.4-1.1-2.5-2.5-2.5s-2.5,1.1-2.5,2.5c0,6.4-5.2,11.7-11.6,11.7c-3.1,0-6.1-1.2-8.3-3.5c-1-1-2.6-1-3.5,0   c-0.5,0.5-0.7,1.1-0.7,1.8v83.2c0,1.4,1.1,2.5,2.5,2.5h161.8c1.4,0,2.5-1.1,2.5-2.5V159C211.4,158,210.8,157.1,209.9,156.7z    M206.4,239.7H49.6v-75.8c2.3,1.2,4.9,1.8,7.6,1.8c5.8,0,11.1-3,14.2-7.9c4.8,7.8,15.1,10.2,22.9,5.4c2.2-1.4,4-3.2,5.4-5.4   c4.8,7.8,15.1,10.2,22.9,5.4c2.2-1.4,4-3.2,5.4-5.4c4.8,7.8,15.1,10.2,22.9,5.4c2.2-1.4,4-3.2,5.4-5.4c4.8,7.8,15.1,10.2,22.9,5.4   c2.2-1.4,4-3.2,5.4-5.4c3,4.9,8.4,7.9,14.2,7.9c2.6,0,5.2-0.6,7.6-1.8L206.4,239.7z"/>
	<path class="st9" d="M184.7,70.5h-26.3c-1.4,0-2.5,1.1-2.5,2.5s1.1,2.5,2.5,2.5h26.3c1.4,0,2.5-1.1,2.5-2.5S186.1,70.5,184.7,70.5z   "/>
	<path class="st9" d="M97.7,70.5H71.4c-1.4,0-2.5,1.1-2.5,2.5s1.1,2.5,2.5,2.5h26.3c1.4,0,2.5-1.1,2.5-2.5S99,70.5,97.7,70.5z"/>
</g>
</svg>
