<svg height="496pt" viewBox="0 0 496 496" width="496pt" xmlns="http://www.w3.org/2000/svg"><path d="m280 296h-112v-128h80v-32h-208v-64h-32v416h352v-192zm0 0" fill="#e6e9ed"/><path d="m360 8v80h-32v-48h-256v-32zm0 0" fill="#e6e9ed"/><path d="m72 40v32h-64l64-64zm0 0" fill="#ffc729"/><path d="m328 40v48h-64c-8.800781 0-16 7.199219-16 16v32h-208v-64h32v-32zm0 0" fill="#69d6f4"/><path d="m40 328h160v128h-160zm0 0" fill="#69d6f4"/><path d="m248 280c0 8.800781 7.199219 16 16 16h-96v-128h80zm0 0" fill="#b4dd7f"/><path d="m488 104v176c0 8.800781-7.199219 16-16 16h-32l-48 40v-40h-128c-8.800781 0-16-7.199219-16-16v-176c0-8.800781 7.199219-16 16-16h208c8.800781 0 16 7.199219 16 16zm0 0" fill="#fcd770"/><path d="m384 248c0 8.835938-7.164062 16-16 16s-16-7.164062-16-16 7.164062-16 16-16 16 7.164062 16 16zm0 0" fill="#e6e9ed"/><path d="m384 135.039062c0 .640626-.078125 1.28125-.160156 1.921876l-7.28125 55.039062c-.320313 4.480469-4.078125 8-8.558594 8s-8.238281-3.519531-8.558594-8l-7.28125-55.039062c-.082031-.640626-.160156-1.28125-.160156-1.921876 0-8.320312 6.71875-15.039062 15.039062-15.039062h1.921876c8.320312 0 15.039062 6.71875 15.039062 15.039062zm0 0" fill="#e6e9ed"/><path d="m472 80h-88v16h88c4.414062 0 8 3.59375 8 8v176c0 4.40625-3.585938 8-8 8h-34.894531l-37.105469 30.921875v-30.921875h-136c-4.414062 0-8-3.59375-8-8v-176c0-4.40625 3.585938-8 8-8h104v-96h-299.3125l-68.6875 68.6875v427.3125h368v-192h16v49.078125l58.894531-49.078125h29.105469c13.230469 0 24-10.769531 24-24v-176c0-13.230469-10.769531-24-24-24zm-230.527344 208h-65.472656v-112h64v104c0 2.816406.574219 5.488281 1.472656 8zm-1.472656-184v24h-192v-48h32v-32h240v32h-56c-13.230469 0-24 10.769531-24 24zm-212.6875-40 36.6875-36.6875v36.6875zm324.6875 16h-16v-48h-256v-16h272zm0 400h-336v-400h16v64h208v16h-80v144h192zm0 0"/><path d="m32 464h176v-144h-176zm16-128h144v112h-144zm0 0"/><path d="m320 448h16v16h-16zm0 0"/><path d="m224 448h80v16h-80zm0 0"/><path d="m224 416h112v16h-112zm0 0"/><path d="m224 384h112v16h-112zm0 0"/><path d="m224 352h16v16h-16zm0 0"/><path d="m256 352h80v16h-80zm0 0"/><path d="m224 320h112v16h-112zm0 0"/><path d="m32 288h80v16h-80zm0 0"/><path d="m128 288h16v16h-16zm0 0"/><path d="m32 256h112v16h-112zm0 0"/><path d="m32 224h112v16h-112zm0 0"/><path d="m64 192h80v16h-80zm0 0"/><path d="m32 192h16v16h-16zm0 0"/><path d="m32 160h112v16h-112zm0 0"/><path d="m368.992188 112h-1.984376c-12.6875 0-23.007812 10.320312-23.007812 23.007812 0 1.007813.070312 2.015626.199219 3.023438l7.25 54.5625c.613281 8.636719 7.886719 15.40625 16.550781 15.40625s15.9375-6.769531 16.496094-14.929688l7.296875-55.046874c.136719-1 .207031-2.007813.207031-3.015626 0-12.6875-10.320312-23.007812-23.007812-23.007812zm6.945312 23.929688-7.34375 55.519531c-.050781.613281-1.097656 1.09375-1.234375-.480469l-7.296875-55.03125c-.039062-.304688-.0625-.617188-.0625-.929688 0-3.863281 3.144531-7.007812 7.007812-7.007812h1.984376c3.863281 0 7.007812 3.144531 7.007812 7.007812 0 .3125-.023438.625-.0625.921876zm0 0"/><path d="m368 224c-13.230469 0-24 10.769531-24 24s10.769531 24 24 24 24-10.769531 24-24-10.769531-24-24-24zm0 32c-4.414062 0-8-3.59375-8-8s3.585938-8 8-8 8 3.59375 8 8-3.585938 8-8 8zm0 0"/></svg>