<svg height="496pt" viewBox="0 0 496 496" width="496pt" xmlns="http://www.w3.org/2000/svg"><path d="m8 8h480v64h-480zm0 0" fill="#ccd1d9"/><path d="m488 72v288h-32v-32c0-8.800781-7.199219-16-16-16h-120v-48l-80 48h-56v-80h-144v96h112v32h-144v-288zm0 0" fill="#e6e9ed"/><path d="m280 104h176v128h-176zm0 0" fill="#b4dd7f"/><path d="m184 232v80h-16c-8.800781 0-16 7.199219-16 16h-112v-96zm0 0" fill="#69d6f4"/><path d="m40 104h144v96h-144zm0 0" fill="#fcd770"/><path d="m456 360v112c0 8.800781-7.199219 16-16 16h-272c-8.800781 0-16-7.199219-16-16v-144c0-8.800781 7.199219-16 16-16h72l80-48v48h120c8.800781 0 16 7.199219 16 16zm0 0" fill="#fcd770"/><path d="m352 400-96 48v-96zm0 0" fill="#b4dd7f"/><path d="m32 32h16v16h-16zm0 0"/><path d="m64 32h16v16h-16zm0 0"/><path d="m96 32h16v16h-16zm0 0"/><path d="m0 0v368h160v-40c0-4.40625 3.585938-8 8-8h74.214844l69.785156-41.871094v41.871094h128c4.414062 0 8 3.59375 8 8v144c0 4.40625-3.585938 8-8 8h-272c-4.414062 0-8-3.59375-8-8v-88h-16v88c0 13.230469 10.769531 24 24 24h272c13.230469 0 24-10.769531 24-24v-104h32v-368zm480 16v48h-464v-48zm-334.527344 304h-97.472656v-80h128v64h-8c-10.414062 0-19.214844 6.710938-22.527344 16zm318.527344 32v-24c0-13.230469-10.769531-24-24-24h-112v-54.128906l-90.214844 54.128906h-45.785156v-80h-160v112h112v16h-128v-272h464v272zm0 0"/><path d="m248 460.945312 121.886719-60.945312-121.886719-60.945312zm16-96 70.113281 35.054688-70.113281 35.054688zm0 0"/><path d="m272 240h192v-144h-192zm16-128h160v112h-160zm0 0"/><path d="m416 192h16v16h-16zm0 0"/><path d="m304 192h96v16h-96zm0 0"/><path d="m304 160h128v16h-128zm0 0"/><path d="m32 208h160v-112h-160zm16-96h128v80h-128zm0 0"/><path d="m304 128h128v16h-128zm0 0"/></svg>